<svg xmlns="http://www.w3.org/2000/svg" viewBox="0 0 640 800" role="img" aria-labelledby="title desc">
  <title id="title">Festival clothing illustration</title>
  <desc id="desc">A stylized yukata and happi inspired garment on a warm evening background.</desc>
  <defs>
    <linearGradient id="bg" x1="0" y1="0" x2="1" y2="1">
      <stop offset="0%" stop-color="#f8fbff"/>
      <stop offset="100%" stop-color="#f0e8f4"/>
    </linearGradient>
    <linearGradient id="cloth" x1="0" y1="0" x2="1" y2="1">
      <stop offset="0%" stop-color="#514054"/>
      <stop offset="100%" stop-color="#3375c3"/>
    </linearGradient>
  </defs>
  <rect width="640" height="800" fill="url(#bg)"/>
  <circle cx="320" cy="116" r="52" fill="#162b4c"/>
  <g transform="translate(132 172)">
    <path d="M188 10 274 100 352 52 376 116 302 172 316 462 60 462 74 172 0 116 24 52 102 100 188 10Z" fill="url(#cloth)"/>
    <path d="M188 10 238 82 188 180 138 82 188 10Z" fill="#b1cffb" opacity="0.92"/>
    <rect x="118" y="220" width="140" height="72" rx="16" fill="#87bcfc"/>
    <path d="M112 250c42-34 110-34 152 0" fill="none" stroke="#162b4c" stroke-width="10" stroke-linecap="round"/>
    <circle cx="188" cy="130" r="24" fill="none" stroke="#f7fbff" stroke-width="8" opacity="0.75"/>
    <circle cx="124" cy="324" r="14" fill="#f7fbff" opacity="0.85"/>
    <circle cx="252" cy="324" r="14" fill="#f7fbff" opacity="0.85"/>
    <path d="M46 126c54 16 92 42 118 74" fill="none" stroke="#87bcfc" stroke-width="11" stroke-linecap="round" opacity="0.8"/>
    <path d="M330 126c-54 16-92 42-118 74" fill="none" stroke="#87bcfc" stroke-width="11" stroke-linecap="round" opacity="0.8"/>
  </g>
  <g fill="#6f96df" opacity="0.35">
    <circle cx="92" cy="114" r="16"/>
    <circle cx="536" cy="158" r="12"/>
    <circle cx="512" cy="702" r="18"/>
  </g>
</svg>
