<svg xmlns="http://www.w3.org/2000/svg" viewBox="0 0 640 800" role="img" aria-labelledby="title desc">
  <title id="title">Japanese noodle bowl illustration</title>
  <desc id="desc">A stylized noodle bowl with chopsticks.</desc>
  <defs>
    <linearGradient id="bg" x1="0" y1="0" x2="1" y2="1">
      <stop offset="0%" stop-color="#f7fbff"/>
      <stop offset="100%" stop-color="#eaf2ff"/>
    </linearGradient>
  </defs>
  <rect width="640" height="800" fill="url(#bg)"/>
  <g transform="translate(70 160)">
    <path d="M330 28 486 180" fill="none" stroke="#8f6842" stroke-width="16" stroke-linecap="round"/>
    <path d="M374 8 520 148" fill="none" stroke="#b88a5d" stroke-width="16" stroke-linecap="round"/>
    <ellipse cx="250" cy="330" rx="190" ry="54" fill="#f6fbff" stroke="#6f96df" stroke-width="10"/>
    <path d="M76 330h348c-14 104-88 186-174 186S90 434 76 330Z" fill="#514054"/>
    <g fill="none" stroke="#f4d35e" stroke-linecap="round" stroke-width="10">
      <path d="M146 256c24 22 38 42 38 62"/>
      <path d="M184 240c30 24 48 48 48 80"/>
      <path d="M228 232c34 26 56 52 60 86"/>
      <path d="M270 236c22 18 40 40 48 72"/>
      <path d="M316 248c18 18 30 38 34 60"/>
    </g>
    <circle cx="178" cy="286" r="16" fill="#7fb069"/>
    <circle cx="310" cy="286" r="16" fill="#e76f51"/>
  </g>
</svg>
