<svg xmlns="http://www.w3.org/2000/svg" viewBox="0 0 640 800" role="img" aria-labelledby="title desc">
  <title id="title">Traditional footwear illustration</title>
  <desc id="desc">Stylized tabi and geta sandals on a soft background.</desc>
  <defs>
    <linearGradient id="bg" x1="0" y1="0" x2="1" y2="1">
      <stop offset="0%" stop-color="#eef5ff"/>
      <stop offset="100%" stop-color="#f3edf5"/>
    </linearGradient>
  </defs>
  <rect width="640" height="800" fill="url(#bg)"/>
  <g transform="translate(110 180)">
    <path d="M86 54c24-34 74-40 108-18 30 18 40 60 18 94l-54 86-98-52 26-110Z" fill="#f8fbff" stroke="#6f96df" stroke-width="10"/>
    <path d="M236 112h182c42 0 76 28 84 68l10 48H210l26-116Z" fill="#b88a5d"/>
    <path d="M232 228h288l-12 42H244z" fill="#8f6842"/>
    <rect x="276" y="270" width="34" height="64" rx="10" fill="#514054"/>
    <rect x="412" y="270" width="34" height="64" rx="10" fill="#514054"/>
    <path d="M314 146c22 8 44 22 60 44" fill="none" stroke="#162b4c" stroke-width="12" stroke-linecap="round"/>
    <path d="M124 68c20 22 20 58 0 84" fill="none" stroke="#87bcfc" stroke-width="10" stroke-linecap="round"/>
  </g>
  <path d="M88 700c120-36 344-36 464 0" fill="none" stroke="#6f96df" stroke-width="18" stroke-linecap="round" opacity="0.3"/>
</svg>
